<svg xmlns="http://www.w3.org/2000/svg" width="1200" height="675" viewBox="0 0 1200 675" role="img" aria-labelledby="title desc">
  <title id="title">spec-first engineering loop</title>
  <desc id="desc">A blueprint-style diagram: a one-off AI chat becomes a repository-backed engineering loop. spec-first turns chat into requirements, plan, tasks, code, review, and knowledge, with scripts preparing facts and the LLM deciding, producing durable repo memory.</desc>
  <defs>
    <linearGradient id="bg" x1="0" y1="0" x2="1" y2="1">
      <stop offset="0" stop-color="#F8FBFF"/>
      <stop offset="0.55" stop-color="#EFF6FF"/>
      <stop offset="1" stop-color="#ECFEFF"/>
    </linearGradient>
    <linearGradient id="line" x1="0" y1="0" x2="1" y2="0">
      <stop offset="0" stop-color="#2563EB"/>
      <stop offset="0.5" stop-color="#06B6D4"/>
      <stop offset="1" stop-color="#14B8A6"/>
    </linearGradient>
    <filter id="shadow" x="-20%" y="-20%" width="140%" height="140%">
      <feDropShadow dx="0" dy="10" stdDeviation="14" flood-color="#1E3A5F" flood-opacity="0.14"/>
    </filter>
    <filter id="softGlow" x="-30%" y="-30%" width="160%" height="160%">
      <feGaussianBlur stdDeviation="4" result="blur"/>
      <feMerge>
        <feMergeNode in="blur"/>
        <feMergeNode in="SourceGraphic"/>
      </feMerge>
    </filter>
    <marker id="arrow" viewBox="0 0 10 10" refX="9" refY="5" markerWidth="7.5" markerHeight="7.5" orient="auto-start-reverse">
      <path d="M 0 0 L 10 5 L 0 10 z" fill="#2563EB"/>
    </marker>
    <marker id="arrowLoop" viewBox="0 0 10 10" refX="9" refY="5" markerWidth="7" markerHeight="7" orient="auto-start-reverse">
      <path d="M 0 0 L 10 5 L 0 10 z" fill="#0EA5E9"/>
    </marker>
    <pattern id="grid" width="32" height="32" patternUnits="userSpaceOnUse">
      <path d="M 32 0 H 0 V 32" fill="none" stroke="#D8E8FA" stroke-width="1"/>
    </pattern>
    <style>
      .h1 { fill:#0F172A; font-family: Inter, ui-sans-serif, system-ui, -apple-system, "Segoe UI", sans-serif; font-size:33px; font-weight:800; text-anchor:middle; }
      .h2 { fill:#475569; font-family: Inter, ui-sans-serif, system-ui, -apple-system, "Segoe UI", sans-serif; font-size:16px; font-weight:650; text-anchor:middle; }
      .label { fill:#0F172A; font-family: Inter, ui-sans-serif, system-ui, -apple-system, "Segoe UI", sans-serif; font-size:20px; font-weight:800; text-anchor:middle; }
      .small { fill:#475569; font-family: Inter, ui-sans-serif, system-ui, -apple-system, "Segoe UI", sans-serif; font-size:14px; font-weight:650; text-anchor:middle; }
      .tiny { fill:#64748B; font-family: Inter, ui-sans-serif, system-ui, -apple-system, "Segoe UI", sans-serif; font-size:11.5px; font-weight:700; text-anchor:middle; }
      .mono { fill:#164E63; font-family:"SFMono-Regular", Consolas, "Liberation Mono", monospace; font-size:13px; font-weight:700; text-anchor:middle; }
      .node { fill:#FFFFFF; stroke:#2563EB; stroke-width:2; filter:url(#shadow); }
      .node-amber { fill:#FFFBEB; stroke:#D97706; stroke-width:2; filter:url(#shadow); }
      .node-teal { fill:#F0FDFA; stroke:#0D9488; stroke-width:2; filter:url(#shadow); }
      .wire { fill:none; stroke:url(#line); stroke-width:4; stroke-linecap:round; stroke-linejoin:round; marker-end:url(#arrow); }
      .loop { fill:none; stroke:#0EA5E9; stroke-width:2.6; stroke-linecap:round; marker-end:url(#arrowLoop); }
      .wire-muted { fill:none; stroke:#93C5FD; stroke-width:2; stroke-linecap:round; stroke-dasharray:8 10; }
      .repo-line { fill:none; stroke:#94A3B8; stroke-width:1.4; }
    </style>
  </defs>

  <rect width="1200" height="675" fill="url(#bg)"/>
  <rect width="1200" height="675" fill="url(#grid)" opacity="0.7"/>

  <text x="600" y="64" class="h1">spec-first turns chats into an engineering loop</text>
  <text x="600" y="94" class="h2">repo-local artifacts make decisions reviewable, reusable, and recoverable</text>

  <!-- input -->
  <g transform="translate(60 250)">
    <rect class="node-amber" x="0" y="0" width="196" height="150" rx="11"/>
    <text x="98" y="42" class="label">AI chat</text>
    <text x="98" y="74" class="small">fast code</text>
    <text x="98" y="100" class="small">lost context</text>
    <text x="98" y="126" class="small">thin review trail</text>
  </g>

  <!-- output -->
  <g transform="translate(944 250)">
    <rect class="node-teal" x="0" y="0" width="196" height="150" rx="11"/>
    <text x="98" y="42" class="label">Repo memory</text>
    <text x="98" y="74" class="small">durable decisions</text>
    <text x="98" y="100" class="small">focused evidence</text>
    <text x="98" y="126" class="small">team handoff</text>
  </g>

  <path class="wire" d="M 268 312 C 330 300 372 300 420 312"/>
  <path class="wire" d="M 780 312 C 828 300 870 300 932 312"/>

  <!-- loop card -->
  <g transform="translate(400 132)">
    <rect x="0" y="0" width="400" height="392" rx="18" fill="#FFFFFF" stroke="#BFDBFE" stroke-width="1.6" filter="url(#shadow)"/>

    <!-- core -->
    <circle cx="200" cy="196" r="66" fill="#0F172A" stroke="#22D3EE" stroke-width="3" filter="url(#softGlow)"/>
    <text x="200" y="184" class="label" style="fill:#F8FAFC; font-size:21px">spec-first</text>
    <text x="200" y="207" class="mono" style="fill:#A5F3FC; font-size:11.5px">scripts prepare</text>
    <text x="200" y="225" class="mono" style="fill:#A5F3FC; font-size:11.5px">LLM decides</text>

    <!-- loop arrows between the 6 stages (clockwise) -->
    <path class="loop" d="M 232 58 C 296 66 340 104 354 156"/>
    <path class="loop" d="M 360 232 C 352 286 320 326 268 344"/>
    <path class="loop" d="M 200 360 C 148 360 108 340 84 300"/>
    <path class="loop" d="M 44 232 C 38 178 58 134 100 104"/>
    <path class="loop" d="M 148 62 C 160 58 176 56 192 56"/>

    <!-- 6 stages -->
    <g transform="translate(146 22)">
      <rect class="node" x="0" y="0" width="108" height="50" rx="9"/>
      <text x="54" y="22" class="small">Requirements</text>
      <text x="54" y="40" class="tiny">what / why</text>
    </g>
    <g transform="translate(288 92)">
      <rect class="node" x="0" y="0" width="100" height="50" rx="9"/>
      <text x="50" y="22" class="small">Plan</text>
      <text x="50" y="40" class="tiny">scope / risk</text>
    </g>
    <g transform="translate(290 250)">
      <rect class="node" x="0" y="0" width="100" height="50" rx="9"/>
      <text x="50" y="22" class="small">Review</text>
      <text x="50" y="40" class="tiny">findings</text>
    </g>
    <g transform="translate(146 320)">
      <rect class="node" x="0" y="0" width="108" height="50" rx="9"/>
      <text x="54" y="22" class="small">Knowledge</text>
      <text x="54" y="40" class="tiny">learnings</text>
    </g>
    <g transform="translate(12 250)">
      <rect class="node" x="0" y="0" width="100" height="50" rx="9"/>
      <text x="50" y="22" class="small">Code</text>
      <text x="50" y="40" class="tiny">verified diff</text>
    </g>
    <g transform="translate(12 92)">
      <rect class="node" x="0" y="0" width="100" height="50" rx="9"/>
      <text x="50" y="22" class="small">Tasks</text>
      <text x="50" y="40" class="tiny">handoff</text>
    </g>
  </g>

  <!-- repo surfaces -->
  <g transform="translate(96 470)">
    <rect class="node" x="0" y="0" width="270" height="104" rx="12"/>
    <text x="135" y="34" class="label" style="font-size:18px">Source of truth</text>
    <path class="repo-line" d="M 54 54 H 216"/>
    <path class="repo-line" d="M 54 72 H 190"/>
    <text x="135" y="90" class="tiny">docs / skills / tests / changelog</text>
  </g>
  <g transform="translate(834 470)">
    <rect class="node" x="0" y="0" width="270" height="104" rx="12"/>
    <text x="135" y="34" class="label" style="font-size:18px">Reusable learning</text>
    <path class="repo-line" d="M 54 54 H 216"/>
    <path class="repo-line" d="M 54 72 H 190"/>
    <text x="135" y="90" class="tiny">review notes / debug paths / solutions</text>
  </g>
  <path class="wire-muted" d="M 300 524 C 420 596 780 596 900 524"/>

  <!-- ribbon -->
  <g transform="translate(250 612)">
    <rect x="0" y="0" width="700" height="40" rx="20" fill="#E0F2FE" stroke="#38BDF8" stroke-width="1.4"/>
    <text x="350" y="26" class="mono" style="font-size:12px">Codebase -&gt; Spec -&gt; Plan -&gt; Tasks -&gt; Code -&gt; Review -&gt; Knowledge</text>
  </g>
</svg>
